<svg width="14" height="14" viewBox="0 0 14 14" fill="none" xmlns="http://www.w3.org/2000/svg">
<path d="M6.99997 11.418L3.91664 13.7721C3.76386 13.8971 3.59719 13.956 3.41664 13.9488C3.23608 13.9421 3.07636 13.8902 2.93747 13.793C2.79858 13.6957 2.69108 13.5638 2.61497 13.3971C2.5383 13.2305 2.53469 13.0499 2.60414 12.8555L3.79164 9.0013L0.770804 6.85547C0.604138 6.74436 0.499971 6.59853 0.458304 6.41797C0.416638 6.23741 0.423582 6.07075 0.479138 5.91797C0.534693 5.76519 0.631915 5.62964 0.770804 5.5113C0.909693 5.39352 1.07636 5.33464 1.2708 5.33464H4.99997L6.2083 1.33464C6.27775 1.14019 6.38553 0.990747 6.53164 0.886302C6.67719 0.782413 6.8333 0.730469 6.99997 0.730469C7.16664 0.730469 7.32275 0.782413 7.46831 0.886302C7.61442 0.990747 7.72219 1.14019 7.79164 1.33464L8.99997 5.33464H12.7291C12.9236 5.33464 13.0903 5.39352 13.2291 5.5113C13.368 5.62964 13.4653 5.76519 13.5208 5.91797C13.5764 6.07075 13.5833 6.23741 13.5416 6.41797C13.5 6.59853 13.3958 6.74436 13.2291 6.85547L10.2083 9.0013L11.3958 12.8555C11.4652 13.0499 11.4619 13.2305 11.3858 13.3971C11.3091 13.5638 11.2014 13.6957 11.0625 13.793C10.9236 13.8902 10.7639 13.9421 10.5833 13.9488C10.4027 13.956 10.2361 13.8971 10.0833 13.7721L6.99997 11.418Z" fill="#FBBC05"/>
</svg>
